<?xml version="1.0" encoding="utf-8"?>
<!-- Generator: Adobe Illustrator 15.0.0, SVG Export Plug-In . SVG Version: 6.00 Build 0)  -->
<!DOCTYPE svg PUBLIC "-//W3C//DTD SVG 1.1//EN" "http://www.w3.org/Graphics/SVG/1.1/DTD/svg11.dtd">
<svg version="1.1" id="Calque_1" xmlns="http://www.w3.org/2000/svg" xmlns:xlink="http://www.w3.org/1999/xlink" x="0px" y="0px"
	 width="1260.921px" height="151.429px" viewBox="0 0 1260.921 151.429" style="enable-background:new 0 0 1260.921 151.429;"
	 xml:space="preserve">
<g>
	<path style="fill:#F5EB29;" d="M44.366,135.47c-8.209-2.556-14.805-5.879-19.783-9.968l8.739-20.784
		c4.767,3.748,10.432,6.762,17.001,9.03c6.568,2.271,13.135,3.404,19.704,3.404c7.309,0,12.711-1.161,16.207-3.491
		c3.495-2.323,5.245-5.421,5.245-9.284c0-2.837-1.035-5.195-3.099-7.07c-2.066-1.874-4.715-3.377-7.947-4.514
		c-3.23-1.134-7.601-2.386-13.105-3.748c-8.477-2.155-15.414-4.316-20.817-6.475c-5.402-2.155-10.037-5.624-13.902-10.393
		c-3.868-4.771-5.802-11.13-5.802-19.082c0-6.925,1.749-13.204,5.245-18.823c3.494-5.625,8.764-10.081,15.81-13.374
		c7.045-3.296,15.651-4.941,25.819-4.941c7.096,0,14.036,0.91,20.817,2.726c6.776,1.818,12.711,4.431,17.795,7.837l-7.943,20.954
		c-10.277-6.244-20.552-9.367-30.825-9.367c-7.205,0-12.527,1.249-15.97,3.747c-3.443,2.5-5.165,5.795-5.165,9.879
		c0,4.089,1.987,7.133,5.959,9.116c3.973,1.988,10.035,3.947,18.193,5.876c8.474,2.159,15.412,4.318,20.816,6.474
		c5.402,2.161,10.034,5.566,13.902,10.222c3.865,4.66,5.8,10.966,5.8,18.913c0,6.814-1.774,13.032-5.324,18.655
		c-3.548,5.623-8.872,10.082-15.968,13.373c-7.098,3.292-15.73,4.94-25.899,4.94C61.075,139.302,52.575,138.025,44.366,135.47z"/>
	<path style="fill:#F5EB29;" d="M205.563,137.257l-21.451-33.221h-1.271h-22.403v33.221h-25.742V18.001h48.145
		c9.851,0,18.404,1.763,25.661,5.283c7.254,3.518,12.841,8.518,16.763,14.988c3.918,6.478,5.879,14.142,5.879,23.001
		c0,8.861-1.986,16.5-5.959,22.915c-3.972,6.419-9.614,11.33-16.922,14.735l24.947,38.333H205.563z M199.047,45.856
		c-4.026-3.578-9.906-5.367-17.637-5.367h-20.973v41.571h20.973c7.731,0,13.611-1.817,17.637-5.452
		c4.024-3.633,6.038-8.747,6.038-15.335C205.085,54.574,203.071,49.432,199.047,45.856z"/>
	<path style="fill:#FFFFFF;" d="M296.447,18.001h50.526c12.075,0,22.747,2.469,32.018,7.41c9.269,4.94,16.471,11.898,21.609,20.87
		c5.137,8.974,7.705,19.424,7.705,31.347c0,11.928-2.568,22.379-7.705,31.348c-5.139,8.977-12.341,15.93-21.609,20.872
		c-9.271,4.942-19.942,7.409-32.018,7.409h-50.526V18.001z M345.702,114.598c11.122,0,19.994-3.321,26.615-9.964
		c6.62-6.646,9.931-15.646,9.931-27.006c0-11.354-3.311-20.357-9.931-27.002c-6.621-6.644-15.493-9.964-26.615-9.964h-23.515v73.936
		H345.702z"/>
	<path style="fill:#FFFFFF;" d="M513.811,115.108v22.148h-86.119V18.001h84.055v22.147h-58.474v25.895h51.641V87.51h-51.641v27.599
		H513.811z"/>
	<path style="fill:#FFFFFF;" d="M534.309,18.001h25.738v96.771h55.772v22.485h-81.511V18.001z"/>
	<path style="fill:#FFFFFF;" d="M716.396,115.108v22.148h-86.121V18.001h84.056v22.147h-58.47v25.895h51.636V87.51H655.86v27.599
		H716.396z M679.376-16.242h26.694l-28.76,24.534h-19.387L679.376-16.242z"/>
	<path style="fill:#FFFFFF;" d="M838.107,137.257l-0.159-71.552l-32.731,58.947h-11.6l-32.568-57.416v70.021h-24.155V18.001h21.294
		l41.628,74.11l40.993-74.11h21.134l0.316,119.256H838.107z"/>
	<path style="fill:#FFFFFF;" d="M911.275,131.295c-9.271-5.337-16.522-12.693-21.77-22.063c-5.239-9.371-7.861-19.905-7.861-31.604
		c0-11.695,2.622-22.23,7.861-31.6c5.247-9.372,12.499-16.723,21.77-22.063c9.268-5.341,19.681-8.009,31.224-8.009
		c11.546,0,21.93,2.668,31.146,8.009c9.213,5.34,16.473,12.69,21.764,22.063c5.299,9.369,7.946,19.904,7.946,31.6
		c0,11.699-2.647,22.233-7.946,31.604c-5.291,9.369-12.551,16.726-21.764,22.063c-9.216,5.341-19.6,8.007-31.146,8.007
		C930.956,139.302,920.543,136.636,911.275,131.295z M960.293,110.937c5.297-3.235,9.458-7.753,12.477-13.546
		c3.02-5.79,4.526-12.375,4.526-19.763c0-7.381-1.507-13.97-4.526-19.762c-3.019-5.792-7.18-10.309-12.477-13.543
		c-5.295-3.237-11.228-4.853-17.794-4.853c-6.57,0-12.501,1.615-17.796,4.853c-5.297,3.234-9.455,7.751-12.477,13.543
		c-3.016,5.792-4.528,12.381-4.528,19.762c0,7.388,1.513,13.973,4.528,19.763c3.021,5.793,7.18,10.311,12.477,13.546
		c5.295,3.237,11.226,4.854,17.796,4.854C949.065,115.791,954.998,114.174,960.293,110.937z"/>
	<path style="fill:#FFFFFF;" d="M1124.75,18.001v119.256h-21.129l-55.453-72.406v72.406h-25.426V18.001h21.289l55.296,72.406V18.001
		H1124.75z"/>
	<path style="fill:#FFFFFF;" d="M1174.166,40.489h-35.593V18.001h96.927v22.488h-35.594v96.768h-25.74V40.489z"/>
</g>
</svg>
